<svg width="20" height="20" viewBox="0 0 20 20" fill="none" xmlns="http://www.w3.org/2000/svg">
<path d="M13.3406 6.68669L8.75006 2.30336C8.32924 1.8934 7.78446 1.66675 7.21988 1.66675C6.65529 1.66675 6.11051 1.8934 5.68969 2.30336L1.09915 6.68669C0.856131 6.92342 0.662204 7.21382 0.530281 7.53856C0.398358 7.8633 0.331465 8.21493 0.334057 8.57003V15.8534C0.334057 16.5164 0.57588 17.1523 1.00633 17.6211C1.43677 18.09 2.02059 18.3534 2.62933 18.3534H11.8104C12.4192 18.3534 13.003 18.09 13.4334 17.6211C13.8639 17.1523 14.1057 16.5164 14.1057 15.8534V8.56169C14.1072 8.20799 14.0398 7.85798 13.9079 7.53476C13.776 7.21154 13.5827 6.92249 13.3406 6.68669ZM8.75006 16.6867H5.68969V12.52C5.68969 12.299 5.7703 12.0871 5.91378 11.9308C6.05727 11.7745 6.25187 11.6867 6.45478 11.6867H7.98497C8.18788 11.6867 8.38249 11.7745 8.52597 11.9308C8.66945 12.0871 8.75006 12.299 8.75006 12.52V16.6867ZM12.5755 15.8534C12.5755 16.0744 12.4949 16.2863 12.3514 16.4426C12.2079 16.5989 12.0133 16.6867 11.8104 16.6867H10.2802V12.52C10.2802 11.857 10.0384 11.2211 9.60797 10.7523C9.17752 10.2834 8.59371 10.02 7.98497 10.02H6.45478C5.84604 10.02 5.26223 10.2834 4.83178 10.7523C4.40133 11.2211 4.15951 11.857 4.15951 12.52V16.6867H2.62933C2.42642 16.6867 2.23181 16.5989 2.08833 16.4426C1.94485 16.2863 1.86424 16.0744 1.86424 15.8534V8.56169C1.86438 8.44337 1.88765 8.32644 1.9325 8.21867C1.97735 8.11091 2.04276 8.01478 2.12437 7.93669L6.71492 3.56169C6.85454 3.42809 7.03403 3.35441 7.21988 3.35441C7.40572 3.35441 7.58522 3.42809 7.72484 3.56169L12.3154 7.93669C12.397 8.01478 12.4624 8.11091 12.5073 8.21867C12.5521 8.32644 12.5754 8.44337 12.5755 8.56169V15.8534Z" fill="black"/>
</svg>
